<svg xmlns="http://www.w3.org/2000/svg" xmlns:xlink="http://www.w3.org/1999/xlink" width="384" zoomAndPan="magnify" viewBox="0 0 288 287.999989" height="384" preserveAspectRatio="xMidYMid meet" version="1.0"><defs><clipPath id="56665453e8"><path d="M 11 23.71875 L 281 23.71875 L 281 264.46875 L 11 264.46875 Z M 11 23.71875 " clip-rule="nonzero"/></clipPath></defs><path fill="#cf263a" d="M 125.761719 105.949219 C 129.863281 105.949219 133.332031 101.167969 133.332031 95.5 C 133.332031 89.839844 129.863281 85.058594 125.761719 85.058594 C 121.65625 85.058594 118.191406 89.839844 118.191406 95.5 C 118.191406 101.167969 121.65625 105.949219 125.761719 105.949219 " fill-opacity="1" fill-rule="nonzero"/><path fill="#cf263a" d="M 165.554688 105.949219 C 169.65625 105.949219 173.125 101.167969 173.125 95.5 C 173.125 89.839844 169.65625 85.058594 165.554688 85.058594 C 161.449219 85.058594 157.984375 89.839844 157.984375 95.5 C 157.984375 101.167969 161.449219 105.949219 165.554688 105.949219 " fill-opacity="1" fill-rule="nonzero"/><g clip-path="url(#56665453e8)"><path fill="#cf263a" d="M 251 157.242188 L 156.398438 252.070312 C 153.53125 254.945312 149.71875 256.53125 145.65625 256.53125 C 141.597656 256.53125 137.78125 254.945312 134.914062 252.070312 L 40.316406 157.242188 C 11.660156 128.519531 11.660156 81.78125 40.316406 53.058594 C 54.203125 39.132812 72.664062 31.472656 92.300781 31.472656 C 111.941406 31.472656 130.402344 39.132812 144.289062 53.058594 L 145.65625 54.429688 L 147.027344 53.058594 C 160.910156 39.132812 179.378906 31.472656 199.011719 31.472656 C 218.648438 31.472656 237.109375 39.132812 251 53.058594 C 279.65625 81.78125 279.65625 128.519531 251 157.242188 Z M 256.382812 47.675781 C 241.058594 32.316406 220.679688 23.859375 199.011719 23.859375 C 179.183594 23.859375 160.4375 30.941406 145.65625 43.910156 C 130.875 30.941406 112.128906 23.859375 92.300781 23.859375 C 70.628906 23.859375 50.253906 32.316406 34.929688 47.675781 C 3.316406 79.363281 3.316406 130.929688 34.929688 162.617188 L 129.527344 257.445312 C 133.835938 261.761719 139.5625 264.140625 145.65625 264.140625 C 151.746094 264.140625 157.472656 261.761719 161.78125 257.445312 L 256.382812 162.617188 C 287.996094 130.929688 287.996094 79.363281 256.382812 47.675781 " fill-opacity="1" fill-rule="nonzero"/></g><path fill="#cf263a" d="M 97.542969 116.613281 C 93.441406 116.613281 89.976562 121.394531 89.976562 127.054688 C 89.976562 132.71875 93.441406 137.503906 97.542969 137.503906 C 101.644531 137.503906 105.113281 132.71875 105.113281 127.054688 C 105.113281 121.394531 101.644531 116.613281 97.542969 116.613281 " fill-opacity="1" fill-rule="nonzero"/><path fill="#cf263a" d="M 193.773438 116.613281 C 189.667969 116.613281 186.199219 121.394531 186.199219 127.054688 C 186.199219 132.71875 189.667969 137.503906 193.773438 137.503906 C 197.878906 137.503906 201.339844 132.71875 201.339844 127.054688 C 201.339844 121.394531 197.878906 116.613281 193.773438 116.613281 " fill-opacity="1" fill-rule="nonzero"/><path fill="#cf263a" d="M 167.105469 151.808594 C 165.105469 151.101562 163.78125 149.214844 163.796875 147.09375 L 163.796875 146.953125 C 163.796875 136.945312 155.660156 128.804688 145.65625 128.804688 C 135.652344 128.804688 127.515625 136.945312 127.515625 146.953125 L 127.519531 147.09375 C 127.53125 149.214844 126.207031 151.101562 124.210938 151.808594 C 116.96875 154.363281 112.105469 161.242188 112.105469 168.933594 C 112.105469 178.941406 120.238281 187.085938 130.242188 187.085938 C 134.71875 187.085938 139.019531 185.441406 142.347656 182.453125 C 143.289062 181.605469 144.472656 181.183594 145.65625 181.183594 C 146.839844 181.183594 148.027344 181.605469 148.96875 182.453125 C 152.296875 185.441406 156.597656 187.085938 161.070312 187.085938 C 171.074219 187.085938 179.210938 178.941406 179.210938 168.933594 C 179.210938 161.242188 174.34375 154.363281 167.105469 151.808594 " fill-opacity="1" fill-rule="nonzero"/><path fill="#cf263a" d="M 193.773438 147.417969 C 184.132812 147.417969 176.289062 138.28125 176.289062 127.054688 C 176.289062 115.828125 184.132812 106.699219 193.773438 106.699219 C 203.410156 106.699219 211.253906 115.828125 211.253906 127.054688 C 211.253906 138.28125 203.410156 147.417969 193.773438 147.417969 Z M 161.070312 196.996094 C 155.550781 196.996094 150.210938 195.378906 145.65625 192.382812 C 141.105469 195.378906 135.761719 196.996094 130.242188 196.996094 C 114.773438 196.996094 102.191406 184.40625 102.191406 168.933594 C 102.191406 158.195312 108.335938 148.472656 117.785156 143.78125 C 119.363281 129.796875 131.257812 118.890625 145.65625 118.890625 C 160.054688 118.890625 171.949219 129.796875 173.53125 143.78125 C 182.976562 148.472656 189.121094 158.195312 189.121094 168.933594 C 189.121094 184.40625 176.539062 196.996094 161.070312 196.996094 Z M 80.0625 127.054688 C 80.0625 115.828125 87.902344 106.699219 97.542969 106.699219 C 107.183594 106.699219 115.023438 115.828125 115.023438 127.054688 C 115.023438 138.28125 107.183594 147.417969 97.542969 147.417969 C 87.902344 147.417969 80.0625 138.28125 80.0625 127.054688 Z M 125.761719 75.140625 C 135.398438 75.140625 143.242188 84.273438 143.242188 95.5 C 143.242188 106.730469 135.398438 115.859375 125.761719 115.859375 C 116.121094 115.859375 108.277344 106.730469 108.277344 95.5 C 108.277344 84.273438 116.121094 75.140625 125.761719 75.140625 Z M 165.554688 75.140625 C 175.195312 75.140625 183.039062 84.273438 183.039062 95.5 C 183.039062 106.730469 175.195312 115.859375 165.554688 115.859375 C 155.910156 115.859375 148.074219 106.730469 148.074219 95.5 C 148.074219 84.273438 155.910156 75.140625 165.554688 75.140625 Z M 243.984375 60.058594 C 231.96875 48.011719 216 41.378906 199.011719 41.378906 C 182.027344 41.378906 166.054688 48.011719 154.042969 60.058594 L 149.164062 64.945312 C 148.230469 65.878906 146.972656 66.398438 145.65625 66.398438 C 144.34375 66.398438 143.078125 65.878906 142.148438 64.945312 L 137.269531 60.058594 C 125.261719 48.011719 109.289062 41.378906 92.300781 41.378906 C 75.316406 41.378906 59.34375 48.011719 47.332031 60.058594 C 22.523438 84.917969 22.523438 125.375 47.332031 150.242188 L 141.929688 245.070312 C 142.929688 246.070312 144.25 246.617188 145.65625 246.617188 C 147.0625 246.617188 148.386719 246.070312 149.382812 245.070312 L 243.984375 150.242188 C 268.789062 125.375 268.789062 84.917969 243.984375 60.058594 " fill-opacity="1" fill-rule="nonzero"/></svg>